<svg width="75" height="60" viewBox="0 0 75 60" fill="none" xmlns="http://www.w3.org/2000/svg">
<path d="M0 0H14.0063V5.7732H6.06723V54.2268H12V60H0V0Z" fill="#181818"/>
<path d="M60.7897 9.53674e-07H74.7959V60H60.7897V54.2268H68.7287V5.7732H60.7897V9.53674e-07Z" fill="#181818"/>
<path d="M46.075 8.83249C52.3223 8.83249 57.2272 10.6886 60.7897 14.4007L53.2774 20.0509C51.522 18.5223 49.2244 17.7581 46.3848 17.7581C43.6483 17.7581 41.4024 18.5223 39.647 20.0509C38.3761 21.1503 37.4786 22.5839 36.9546 24.3516H53.2774V33.4805H36.9546V54.2268H26.1476V33.4805H14.0063L18.1493 24.3516H26.5042C26.9164 22.429 27.5541 20.6406 28.4173 18.9863C30.1212 15.7655 32.4962 13.2816 35.5424 11.5347C38.5886 9.73324 42.0994 8.83249 46.075 8.83249Z" fill="#181818"/>
</svg>
