<svg width="37" height="30" viewBox="0 0 37 30" fill="none" xmlns="http://www.w3.org/2000/svg">
<path d="M0.984375 0.000244141H7.9875V2.88684H4.01799V27.1136H7.9875V30.0002H0.984375V0.000244141Z" fill="white" fill-opacity="0.6"/>
<path d="M29.392 0.000265241H36.3951V30.0003H29.392V27.1137H33.3615V2.88687H29.392V0.000265241Z" fill="white" fill-opacity="0.6"/>
<path d="M22.0346 4.41675C25.1583 4.41675 27.6107 5.34479 29.392 7.20087L25.6359 10.0259C24.7582 9.26166 23.6094 8.87952 22.1895 8.87952C20.8213 8.87952 19.6984 9.26166 18.8206 10.0259C18.1852 10.5756 17.7365 11.2924 17.4745 12.1763H25.6359V16.7408H17.1943V27.1139H12.0709V16.7408H6.00028L8.07182 12.1763H12.2493C12.4554 11.215 12.7742 10.3208 13.2058 9.49367C14.0577 7.88324 15.2452 6.64132 16.7683 5.76787C18.2914 4.86712 20.0469 4.41675 22.0346 4.41675Z" fill="white" fill-opacity="0.6"/>
</svg>
